<svg width="189" height="58" viewBox="0 0 189 58" fill="none" xmlns="http://www.w3.org/2000/svg">
<rect x="1" y="1" width="187" height="56" rx="9" stroke="white" stroke-width="2"/>
<path d="M43.35 19.575C45.25 19.575 46.8917 19.9333 48.275 20.65C49.675 21.35 50.7417 22.3583 51.475 23.675C52.225 24.9917 52.6 26.5417 52.6 28.325C52.6 30.1083 52.225 31.6583 51.475 32.975C50.7417 34.275 49.675 35.275 48.275 35.975C46.8917 36.6583 45.25 37 43.35 37H37.925V19.575H43.35ZM43.35 35.25C45.5833 35.25 47.2917 34.6417 48.475 33.425C49.675 32.1917 50.275 30.4917 50.275 28.325C50.275 26.1583 49.675 24.4667 48.475 23.25C47.2917 22.0333 45.5833 21.425 43.35 21.425H40.2V35.25H43.35ZM65.9008 33.125H58.3008L56.9008 37H54.5008L60.8008 19.675H63.4258L69.7008 37H67.3008L65.9008 33.125ZM65.2758 31.35L62.1008 22.475L58.9258 31.35H65.2758ZM90.1215 19.7V37H87.8465V24.1L82.0965 37H80.4965L74.7215 24.125V37H72.4465V19.7H74.8965L81.2965 34L87.6965 19.7H90.1215ZM96.2547 19.575V37H93.9797V19.575H96.2547ZM102.407 35.25H108.507V37H100.132V19.575H102.407V35.25ZM118.823 37.175C117.206 37.175 115.731 36.8 114.398 36.05C113.065 35.2833 112.006 34.225 111.223 32.875C110.456 31.5083 110.073 29.975 110.073 28.275C110.073 26.575 110.456 25.05 111.223 23.7C112.006 22.3333 113.065 21.275 114.398 20.525C115.731 19.7583 117.206 19.375 118.823 19.375C120.456 19.375 121.94 19.7583 123.273 20.525C124.606 21.275 125.656 22.325 126.423 23.675C127.19 25.025 127.573 26.5583 127.573 28.275C127.573 29.9917 127.19 31.525 126.423 32.875C125.656 34.225 124.606 35.2833 123.273 36.05C121.94 36.8 120.456 37.175 118.823 37.175ZM118.823 35.125C120.04 35.125 121.131 34.8417 122.098 34.275C123.081 33.7083 123.848 32.9083 124.398 31.875C124.965 30.8417 125.248 29.6417 125.248 28.275C125.248 26.9083 124.965 25.7083 124.398 24.675C123.848 23.625 123.081 22.825 122.098 22.275C121.131 21.7083 120.04 21.425 118.823 21.425C117.606 21.425 116.506 21.7083 115.523 22.275C114.556 22.825 113.79 23.625 113.223 24.675C112.673 25.7083 112.398 26.9083 112.398 28.275C112.398 29.6417 112.673 30.8417 113.223 31.875C113.79 32.9083 114.556 33.7083 115.523 34.275C116.506 34.8417 117.606 35.125 118.823 35.125ZM132.851 35.25H138.951V37H130.576V19.575H132.851V35.25ZM151.667 33.125H144.067L142.667 37H140.267L146.567 19.675H149.192L155.467 37H153.067L151.667 33.125ZM151.042 31.35L147.867 22.475L144.692 31.35H151.042Z" fill="white"/>
</svg>
